<?xml version="1.0" encoding="UTF-8"?>
<!-- Created with Inkscape (http://www.inkscape.org/) -->
<svg width="1024" height="1024" version="1.1" viewBox="0 0 1024 1024" xmlns="http://www.w3.org/2000/svg">
    <style>
        @media (prefers-color-scheme: dark) {
            .pole {
                stroke: white;
            }
        }
    </style>
 <path class="flag" d="m646.54 532c-31.451-4.8149-58.114-14.731-80.839-30.066-4.9709-3.3543-15.39-12.196-23.153-19.648-7.7632-7.452-17.95-16.08-22.638-19.174-26.444-17.452-58.983-27.4-99.654-30.466-48.765-3.6757-108.53 7.1837-159.42 28.965-5.3631 2.2955-9.894 4.0238-10.069 3.8408-0.17464-0.18308 16.869-69.645 37.876-154.36 21.006-84.714 38.213-154.9 38.238-155.96 0.0642-2.8063 32.708-18.188 52.522-24.749 29.391-9.7314 56.147-13.682 84.502-12.477 49.298 2.0948 94.334 17.166 147.94 49.508 9.7104 5.8587 22.312 13.136 28.005 16.171 22.668 12.088 52.611 21.876 79.753 26.071 16.562 2.5596 53.703 2.8459 69.403 0.53513 39.512-5.8157 76.712-17.943 111.22-36.258 6.9288-3.6772 12.726-6.5103 12.882-6.2959 0.15646 0.21443-25.786 76.551-57.649 169.64l-57.933 169.25-10.22 5.085c-18.666 9.2873-44.441 16.707-71.304 20.527-15.544 2.2103-54.65 2.1373-69.458-0.12966z" fill="#0ff"/>
 <g fill="none" stroke="#000" stroke-linecap="round">
  <g stroke-width="32">
   <path class="pole" d="m943.94 129.55-130.78 382.31" style="paint-order:normal"/>
   <path class="pole" d="m211.88 505.9c125.47-78.92 265.46-70.184 318.18-12.773 64.073 69.776 192.84 73.812 278.62 26.668" style="paint-order:normal"/>
   <path class="pole" d="m294.9 152.96c64.99-39.623 175.07-96.04 332.58 4.4685 158.84 101.35 314.38-30.746 315.1-29.273" style="paint-order:normal"/>
  </g>
  <path class="pole" d="m294.57 151.55-200.64 810.35" stroke-width="64" style="paint-order:normal"/>
 </g>
</svg>
